Coordinates
version=1
nRows=14
nColumns=40
inDegrees=yes

Units are S.I. units (second, meters, Newtons, ...)
If the header above contains a line with 'inDegrees', this indicates whether rotational values are in degrees (yes) or radians (no).

endheader
time	pelvis_tilt	pelvis_list	pelvis_rotation	pelvis_tx	pelvis_ty	pelvis_tz	hip_flexion_r	hip_adduction_r	hip_rotation_r	knee_angle_r	knee_angle_r_beta	ankle_angle_r	subtalar_angle_r	mtp_angle_r	hip_flexion_l	hip_adduction_l	hip_rotation_l	knee_angle_l	knee_angle_l_beta	ankle_angle_l	subtalar_angle_l	mtp_angle_l	lumbar_extension	lumbar_bending	lumbar_rotation	arm_flex_r	arm_add_r	arm_rot_r	elbow_flex_r	pro_sup_r	wrist_flex_r	wrist_dev_r	arm_flex_l	arm_add_l	arm_rot_l	elbow_flex_l	pro_sup_l	wrist_flex_l	wrist_dev_l
      4.25000000	    -17.55128903	      5.43211031	      3.81270727	     -0.44499130	      0.73860235	     -0.72314011	     71.04535975	     -3.88852872	     -4.39478332	     87.14260780	      1.52092542	     21.80748982	      0.00000000	      0.00000000	     84.46368389	     -3.58009362	    -12.58345454	     32.89355138	      0.57410077	    -22.67720145	      0.00000000	      0.00000000	     -9.91414719	     -2.58753838	     -5.40734170	     89.96552968	     -1.47885613	     11.81068154	     51.24323708	     67.83724239	      0.00000000	      0.00000000	     89.95948118	     -9.96537359	      7.09637115	     51.26221068	     72.73359528	      0.00000000	      0.00000000
      4.25500000	    -17.60322002	      5.45724036	      3.77721044	     -0.44512299	      0.73763265	     -0.72315319	     71.21692141	     -3.92382295	     -4.42253833	     87.31317115	      1.52390232	     21.77933334	      0.00000000	      0.00000000	     84.54416631	     -3.61201669	    -12.65893195	     32.91190391	      0.57442109	    -22.54339221	      0.00000000	      0.00000000	     -9.88786186	     -2.59538517	     -5.43900878	     89.96573454	     -1.34752326	     11.03117554	     51.07153652	     75.25859771	      0.00000000	      0.00000000	     89.95967307	    -10.01762162	      6.31148341	     51.14841555	     81.04009134	      0.00000000	      0.00000000
      4.26000000	    -17.67725671	      5.45764461	      3.69246023	     -0.44526426	      0.73656537	     -0.72310060	     71.40762872	     -3.87152433	     -4.42640419	     87.48540319	      1.52690833	     21.93053812	      0.00000000	      0.00000000	     84.66565983	     -3.70934937	    -12.74228549	     32.98213178	      0.57564679	    -22.41677753	      0.00000000	      0.00000000	     -9.83598369	     -2.59339681	     -5.43658130	     89.96575889	     -1.24387103	     11.80191528	     51.46758570	     67.31736957	      0.00000000	      0.00000000	     89.95976620	    -10.00338692	      6.89502172	     51.47675437	     72.42592166	      0.00000000	      0.00000000
      4.26500000	    -17.70656538	      5.49957051	      3.58348115	     -0.44537299	      0.73555776	     -0.72311706	     71.56534386	     -3.83007219	     -4.38331323	     87.66665272	      1.53007173	     21.90058846	      0.00000000	      0.00000000	     84.72339134	     -3.81083012	    -12.85838605	     33.02126924	      0.57632987	    -22.34356586	      0.00000000	      0.00000000	     -9.82122075	     -2.64115471	     -5.39012031	     89.96584367	     -1.15058967	     12.12820048	     51.71500991	     63.01127234	      0.00000000	      0.00000000	     89.95988207	    -10.00322959	      7.25683967	     51.72346055	     67.11107522	      0.00000000	      0.00000000
      4.27000000	    -17.71499062	      5.41955326	      3.51584122	     -0.44544758	      0.73456841	     -0.72306954	     71.67122508	     -3.75292398	     -4.46673672	     87.83218945	      1.53296090	     22.04680367	      0.00000000	      0.00000000	     84.82907360	     -3.90202734	    -12.80074818	     33.17604891	      0.57903129	    -22.18458362	      0.00000000	      0.00000000	     -9.82292972	     -2.55473008	     -5.35382471	     89.96605538	     -1.05091155	     12.40184152	     51.93620543	     58.68367944	      0.00000000	      0.00000000	     89.95999069	     -9.93699311	      7.48315920	     52.01266336	     61.94134351	      0.00000000	      0.00000000
      4.27500000	    -17.75607306	      5.46117234	      3.44627579	     -0.44562581	      0.73363368	     -0.72301317	     71.84819590	     -3.75411791	     -4.45700948	     87.99804019	      1.53585554	     21.91580436	      0.00000000	      0.00000000	     84.86559089	     -3.95907419	    -12.89929451	     33.14513657	      0.57849176	    -22.02872980	      0.00000000	      0.00000000	     -9.81427504	     -2.58739496	     -5.37259576	     89.96607834	     -0.88491184	     12.63090364	     52.17897003	     55.50136257	      0.00000000	      0.00000000	     89.96015579	     -9.96334919	      7.65266379	     52.32553506	     57.98531706	      0.00000000	      0.00000000
      4.28000000	    -17.82167425	      5.43654996	      3.35304376	     -0.44571982	      0.73251563	     -0.72303973	     72.02513236	     -3.66630758	     -4.45126409	     88.16671328	      1.53879944	     22.11254582	      0.00000000	      0.00000000	     85.00425242	     -4.03361797	    -12.79481435	     33.28770922	      0.58098013	    -21.92735362	      0.00000000	      0.00000000	     -9.74724666	     -2.56861101	     -5.29288624	     89.96617468	     -0.85209215	     12.77488508	     52.37398368	     53.32246644	      0.00000000	      0.00000000	     89.96024242	     -9.91860163	      7.70162665	     52.52548024	     55.25483821	      0.00000000	      0.00000000
      4.28500000	    -17.82869824	      5.40401933	      3.27629232	     -0.44586180	      0.73156465	     -0.72297609	     72.13863132	     -3.58697524	     -4.47107171	     88.32955614	      1.54164158	     22.25935000	      0.00000000	      0.00000000	     85.10051998	     -4.11341022	    -12.70200369	     33.49058380	      0.58452096	    -21.59804423	      0.00000000	      0.00000000	     -9.75263631	     -2.53291607	     -5.26415498	     89.96633254	     -0.75926503	     12.91599261	     52.62348877	     50.96870729	      0.00000000	      0.00000000	     89.96039895	     -9.84205681	      7.69171631	     52.74498887	     52.30317506	      0.00000000	      0.00000000
      4.29000000	    -17.85321190	      5.38958830	      3.24804110	     -0.44602446	      0.73066121	     -0.72302393	     72.27172890	     -3.58962431	     -4.51202965	     88.46808064	      1.54405929	     22.12096380	      0.00000000	      0.00000000	     85.13022430	     -4.12310100	    -12.66823405	     33.45366638	      0.58387663	    -21.71886505	      0.00000000	      0.00000000	     -9.76578831	     -2.50382740	     -5.32491665	     89.96644068	     -0.60884530	     12.89872609	     52.82788615	     49.89141503	      0.00000000	      0.00000000	     89.96049477	     -9.88455205	      7.69792816	     53.02993078	     50.91146705	      0.00000000	      0.00000000
      4.29500000	    -17.90130956	      5.38414028	      3.20378596	     -0.44602940	      0.72969587	     -0.72307410	     72.43404512	     -3.56984621	     -4.51691754	     88.65125896	      1.54725635	     22.07859485	      0.00000000	      0.00000000	     85.20262304	     -4.11428785	    -12.54780069	     33.49613443	      0.58461783	    -21.61875494	      0.00000000	      0.00000000	     -9.72155834	     -2.47157472	     -5.38230087	     89.96674809	     -0.48110317	     10.75648207	     51.81797567	     76.03169018	      0.00000000	      0.00000000	     89.96070346	    -10.08695122	      5.61723504	     52.01064000	     79.90701564	      0.00000000	      0.00000000
      4.30000000	    -17.90885828	      5.34204650	      3.16869577	     -0.44612329	      0.72877849	     -0.72310860	     72.53769542	     -3.57029992	     -4.60995593	     88.80249116	      1.54989585	     22.11660050	      0.00000000	      0.00000000	     85.26667933	     -4.12894724	    -12.48051754	     33.58260270	      0.58612699	    -21.64000818	      0.00000000	      0.00000000	     -9.72758042	     -2.41205172	     -5.41743740	     89.96684716	     -0.35268349	     10.86478128	     51.94311368	     74.74719816	      0.00000000	      0.00000000	     89.96086056	    -10.09143461	      5.44379943	     52.10326642	     80.44807980	      0.00000000	      0.00000000
      4.30500000	    -17.93296570	      5.34739849	      3.13772565	     -0.44631056	      0.72781500	     -0.72312282	     72.67565028	     -3.53490887	     -4.58855474	     88.96462718	      1.55272566	     22.19011991	      0.00000000	      0.00000000	     85.33435669	     -4.13187613	    -12.40071808	     33.66463269	      0.58755868	    -21.62290585	      0.00000000	      0.00000000	     -9.73208857	     -2.40747698	     -5.45804576	     89.96696754	     -0.24131321	     11.22604760	     52.17808078	     70.34746424	      0.00000000	      0.00000000	     89.96101594	    -10.07827569	      5.71153099	     52.29518309	     76.14565554	      0.00000000	      0.00000000
      4.31000000	    -17.97093930	      5.37936173	      3.09801168	     -0.44639830	      0.72684017	     -0.72317011	     72.82418179	     -3.50143916	     -4.53278771	     89.12136162	      1.55546119	     22.25388864	      0.00000000	      0.00000000	     85.40866043	     -4.13286090	    -12.37588530	     33.75488101	      0.58913381	    -21.56440353	      0.00000000	      0.00000000	     -9.70646149	     -2.42905518	     -5.49855030	     89.96711767	     -0.10551538	     10.79878782	     52.12481721	     74.14857403	      0.00000000	      0.00000000	     89.96117348	    -10.11059198	      5.29758461	     52.28618157	     80.40389676	      0.00000000	      0.00000000
      4.31500000	    -17.96817425	      5.36782016	      3.07427223	     -0.44652214	      0.72598793	     -0.72317890	     72.91356661	     -3.47269851	     -4.54203673	     89.26719499	      1.55800647	     22.34332456	      0.00000000	      0.00000000	     85.44486346	     -4.12340467	    -12.31332672	     33.81413110	      0.59016792	    -21.68247981	      0.00000000	      0.00000000	     -9.72823538	     -2.41885504	     -5.51058879	     89.96725321	     -0.05753558	     10.69250505	     52.20953080	     75.09729547	      0.00000000	      0.00000000	     89.96129636	    -10.08764066	      5.23081818	     52.38331140	     80.40043675	      0.00000000	      0.00000000
